<svg xmlns="http://www.w3.org/2000/svg" viewBox="0 0 1636.0 910.0"><g transform="scale(1.00000 1) translate(10.0 862.0) scale(1 -1)" fill="currentColor"><path d="M400 -48H534V304H48V181H400ZM-10 403 92 338C120 386 142 434 157 479C172 462 169 398 165 343L277 347C279 487 282 560 242 579C221 589 205 587 183 554L180 556C200 645 203 728 203 799V856H84V799C84 670 80 538 -10 403ZM288 330H403V532H417V330H534V862H417V644H403V862H288Z" transform="translate(0.0 -0.0)"/><path d="M56 273H506V858H372V680H294C253 680 221 677 197 626H190V858H56ZM20 -27H540V101H348V248H212V101H20ZM190 401V535C197 549 217 555 230 555H372V401Z" transform="translate(550.0 -0.0)"/><path d="M-1 421 104 335C141 377 174 421 203 466C234 477 236 395 233 337L361 345C361 465 358 542 315 559C290 569 270 562 245 531L241 534C284 618 309 707 309 799V850H17V730H174C152 617 101 527 -1 421ZM199 -47H365C461 -47 526 28 526 129C526 230 461 304 365 304H199C103 304 38 230 38 129C38 28 103 -47 199 -47ZM343 77H221C196 77 175 98 175 129C175 160 196 181 221 181H343C368 181 389 160 389 129C389 98 368 77 343 77ZM383 329H517V862H383V706H312V582H383Z" transform="translate(1100.0 -0.0)"/></g></svg>