<svg xmlns="http://www.w3.org/2000/svg" viewBox="0 0 4708.0 1059.0"><g transform="scale(1.00000 1) translate(1.0 872.0) scale(1 -1)" fill="currentColor"><path d="M-1 421 104 335C141 377 174 421 203 466C234 477 236 395 233 337L361 345C361 465 358 542 315 559C290 569 270 562 245 531L241 534C284 618 309 707 309 799V850H17V730H174C152 617 101 527 -1 421ZM199 -47H365C461 -47 526 28 526 129C526 230 461 304 365 304H199C103 304 38 230 38 129C38 28 103 -47 199 -47ZM343 77H221C196 77 175 98 175 129C175 160 196 181 221 181H343C368 181 389 160 389 129C389 98 368 77 343 77ZM383 329H517V862H383V706H312V582H383Z" transform="translate(0.0 -0.0)"/><path d="M2 69 120 -9C260 209 305 472 305 712V850H22V724H171V688C171 478 131 266 2 69ZM355 -41H489V400H552V526H489V862H355Z" transform="translate(540.0 -0.0)"/><path d="M240 0H385V159H457V288H385V821H214L15 249V159H240ZM154 288 236 545 240 544V288Z" transform="translate(1260.0 -0.0)"/><path d="M240 0H385V159H457V288H385V821H214L15 249V159H240ZM154 288 236 545 240 544V288Z" transform="translate(1717.0 -0.0)"/><path d="M230 -17C354 -17 425 53 425 169V644C425 760 354 830 230 830C106 830 35 760 35 644V444C35 366 73 296 159 296C217 296 267 339 272 412H280V164C280 137 268 114 232 114C201 114 188 132 185 159C182 185 182 202 185 228H47C46 205 44 192 45 159C48 53 111 -17 230 -17ZM229 443C198 443 180 461 180 491V654C180 681 194 699 230 699C266 699 280 681 280 654V493C280 465 260 443 229 443Z" transform="translate(2174.0 -0.0)"/><path d="M41 -125 102 -187C169 -139 195 -57 195 40V156H54V-30H98C95 -64 78 -99 41 -125Z" transform="translate(2614.0 -0.0)"/><path d="M230 -17C354 -17 425 53 425 169V644C425 760 354 830 230 830C106 830 35 760 35 644V169C35 53 106 -17 230 -17ZM230 114C194 114 180 132 180 159V654C180 681 194 699 230 699C266 699 280 681 280 654V159C280 132 266 114 230 114Z" transform="translate(2844.0 -0.0)"/><path d="M230 -17C354 -17 425 53 425 169V644C425 760 354 830 230 830C106 830 35 760 35 644V169C35 53 106 -17 230 -17ZM230 114C194 114 180 132 180 159V654C180 681 194 699 230 699C266 699 280 681 280 654V159C280 132 266 114 230 114Z" transform="translate(3284.0 -0.0)"/><path d="M230 -17C354 -17 425 53 425 169V644C425 760 354 830 230 830C106 830 35 760 35 644V169C35 53 106 -17 230 -17ZM230 114C194 114 180 132 180 159V654C180 681 194 699 230 699C266 699 280 681 280 654V159C280 132 266 114 230 114Z" transform="translate(3724.0 -0.0)"/><path d="M394 165H529V862H394V535C367 516 334 508 274 508H21V387H135C128 345 115 303 89 262L211 216C241 270 256 343 262 387C342 387 374 416 384 465L394 464V361H303V243H394ZM67 -43H543V86H202V205H67ZM199 532C295 532 359 582 359 673V731C359 822 295 872 199 872C103 872 39 822 39 731V673C39 582 103 532 199 532ZM199 640C173 640 168 659 168 679V725C168 744 173 764 199 764C226 764 231 744 231 725V679C231 659 226 640 199 640Z" transform="translate(4164.0 -0.0)"/></g></svg>