<svg xmlns="http://www.w3.org/2000/svg" viewBox="0 0 1101.0 910.0"><g transform="scale(1.00000 1) translate(-20.0 862.0) scale(1 -1)" fill="#08FFD0"><path d="M46 453H518V570H181V599H508V714H181V739H513V856H46ZM380 -48H514V257H46V134H380ZM20 295H540V415H20Z" transform="translate(0.0 -0.0)"/><path d="M202 -47H358C454 -47 520 30 520 131C520 232 454 310 358 310H202C106 310 41 232 41 131C41 30 106 -47 202 -47ZM337 76H223C199 76 178 100 178 131C178 162 199 186 223 186H337C361 186 383 162 383 131C383 100 361 76 337 76ZM17 421 125 336C235 459 308 604 308 773V847H21V725H174C172 633 110 517 17 421ZM365 335H499V522H561V649H499V862H365Z" transform="translate(560.0 -0.0)"/></g></svg>