<svg xmlns="http://www.w3.org/2000/svg" viewBox="0 0 6151.3 853.0"><g transform="scale(1.00000 1) translate(-45.0 836.0) scale(1 -1)" fill="currentColor"><path d="M45 -1H189V429H197L351 -1H472V821H327V392H321L177 821H45Z" transform="translate(0.0 -0.0)"/><path d="M45 -1H402V128H190V360H382V489H190V692H394V821H45Z" transform="translate(486.3 -0.0)"/><path d="M101 -1H236L294 478H297L351 -1H489L582 821H439L412 361H406L361 821H236L191 361H185L157 821H10Z" transform="translate(885.6 -0.0)"/><path d="M227 -17C349 -17 417 67 417 195C417 326 367 380 321 432L252 509C229 535 185 576 181 648C179 683 198 706 228 706C257 706 273 682 274 650C275 627 275 597 274 574H416C417 596 417 625 416 647C411 760 353 836 227 836C101 836 37 760 37 646C37 552 73 490 111 448L174 379C238 308 272 271 272 177C272 142 257 118 227 118C196 118 186 144 180 180C177 199 179 245 184 274H42C37 233 32 200 40 140C53 43 113 -17 227 -17Z" transform="translate(1616.2 -0.0)"/><path d="M45 -1H402V128H190V360H382V489H190V692H394V821H45Z" transform="translate(2037.5 -0.0)"/><path d="M18 -1H167L188 205H283L304 -1H453L330 821H141ZM201 334 229 606H242L270 334Z" transform="translate(2436.9 -0.0)"/><path d="M227 -17C349 -17 417 67 417 195C417 326 367 380 321 432L252 509C229 535 185 576 181 648C179 683 198 706 228 706C257 706 273 682 274 650C275 627 275 597 274 574H416C417 596 417 625 416 647C411 760 353 836 227 836C101 836 37 760 37 646C37 552 73 490 111 448L174 379C238 308 272 271 272 177C272 142 257 118 227 118C196 118 186 144 180 180C177 199 179 245 184 274H42C37 233 32 200 40 140C53 43 113 -17 227 -17Z" transform="translate(2877.2 -0.0)"/><path d="M248 -17C375 -17 453 62 453 171V647C453 759 375 836 248 836C121 836 43 759 43 647V171C43 62 121 -17 248 -17ZM248 116C211 116 188 143 188 168V650C188 676 211 703 248 703C285 703 308 676 308 650V168C308 143 285 116 248 116Z" transform="translate(3298.5 -0.0)"/><path d="M45 -1H189V429H197L351 -1H472V821H327V392H321L177 821H45Z" transform="translate(3763.8 -0.0)"/><path d="M248 -17C375 -17 453 62 453 171V647C453 759 375 836 248 836C121 836 43 759 43 647V171C43 62 121 -17 248 -17ZM248 116C211 116 188 143 188 168V650C188 676 211 703 248 703C285 703 308 676 308 650V168C308 143 285 116 248 116Z" transform="translate(4419.4 -0.0)"/><path d="M45 -1H190V373H199C208 315 259 289 315 289C387 289 446 346 446 447V653C446 755 387 821 276 821H45ZM260 418C244 417 206 422 190 428V692H252C279 692 301 667 301 641V468C301 434 287 419 260 418Z" transform="translate(4884.7 -0.0)"/><path d="M45 -1H402V128H190V360H382V489H190V692H394V821H45Z" transform="translate(5325.0 -0.0)"/><path d="M45 -1H189V429H197L351 -1H472V821H327V392H321L177 821H45Z" transform="translate(5724.3 -0.0)"/></g></svg>