<svg xmlns="http://www.w3.org/2000/svg" viewBox="0 0 9779.0 927.0"><g transform="scale(1.00000 1) translate(14.0 880.0) scale(1 -1)" fill="currentColor"><path d="M-14 76 92 15C121 68 145 123 165 180C171 139 167 69 165 22L278 26C280 166 287 278 248 295C221 307 212 294 198 270L193 272C237 432 253 594 253 728V849H24V733H133V708C133 462 71 211 -14 76ZM295 -26H410V862H295V547H253V434H295ZM423 -41H540V862H423Z" transform="translate(0.0 -0.0)"/><path d="M128 0H273V822H134C120 775 72 744 20 742V582C47 581 91 579 120 637L128 635Z" transform="translate(704.0 -0.0)"/><path d="M128 0H273V822H134C120 775 72 744 20 742V582C47 581 91 579 120 637L128 635Z" transform="translate(1021.5 -0.0)"/><path d="M383 -42H518V862H383V136C361 117 315 102 295 102H261V197H129V102H21V-27H246C334 -27 366 9 375 67H383ZM194 218C285 218 352 273 352 369V490C352 586 285 641 194 641C103 641 36 586 36 490V369C36 273 103 218 194 218ZM194 339C171 339 165 358 165 398V461C165 501 171 520 194 520C216 520 222 501 222 461V398C222 358 216 339 194 339ZM24 660H364V785H224V792C256 795 278 814 278 844V875H127C127 836 133 785 90 785H24Z" transform="translate(1339.0 -0.0)"/><path d="M-15 394 98 317C136 367 164 421 186 475C213 469 223 419 227 322L355 334C350 474 336 539 297 562C271 577 239 570 217 538L211 547C235 632 244 713 244 776V849H109V780C109 656 79 517 -15 394ZM66 -43H528V87H203V271H66ZM382 203H516V862H382Z" transform="translate(2038.0 -0.0)"/><path d="M365 183H499V454H561V580H499V862H365ZM52 -43H510V86H188V240H52ZM177 276C268 276 330 326 330 422V506C330 602 268 652 177 652C86 652 24 602 24 506V422C24 326 86 276 177 276ZM177 391C156 391 153 410 153 430V500C153 520 156 539 177 539C197 539 200 520 200 500V430C200 410 197 391 177 391ZM12 669H341V792H228V799C257 803 268 816 268 835V879H123C123 851 132 792 86 792H12Z" transform="translate(2567.5 -0.0)"/><path d="M20 19V0H410V133H232C286 263 409 522 409 653C409 760 338 830 214 830C90 830 34 760 29 653C27 609 28 595 30 551H175C173 595 172 609 174 653C175 680 188 698 214 698C240 698 261 680 261 653C261 500 90 174 20 19Z" transform="translate(3266.5 -0.0)"/><path d="M230 -17C354 -17 425 53 425 169V644C425 760 354 830 230 830C106 830 35 760 35 644V444C35 366 73 296 159 296C217 296 267 339 272 412H280V164C280 137 268 114 232 114C201 114 188 132 185 159C182 185 182 202 185 228H47C46 205 44 192 45 159C48 53 111 -17 230 -17ZM229 443C198 443 180 461 180 491V654C180 681 194 699 230 699C266 699 280 681 280 654V493C280 465 260 443 229 443Z" transform="translate(3665.0 -0.0)"/><path d="M26 360 108 246C168 282 233 333 290 393C324 390 373 341 425 247L546 330C496 412 459 445 430 461C405 475 382 471 352 448L345 455C420 548 474 656 474 763V783H318V789C350 792 372 811 372 841V880H213C213 827 218 790 187 783H63V661H311C269 561 160 440 26 360ZM20 -27H540V101H348V262H212V101H20Z" transform="translate(4094.5 -0.0)"/><path d="M383 323H517V862H383V767H315C297 832 243 869 169 869C78 869 17 814 17 718V496C17 400 78 345 169 345C238 345 289 376 310 433H383ZM199 -47H365C461 -47 526 28 526 129C526 230 461 304 365 304H199C103 304 38 230 38 129C38 28 103 -47 199 -47ZM343 77H221C196 77 175 98 175 129C175 160 196 181 221 181H343C368 181 389 160 389 129C389 98 368 77 343 77ZM169 466C147 466 147 485 147 524V689C147 729 147 748 169 748C192 748 192 729 192 689V524C192 485 192 466 169 466ZM321 560V640H383V560Z" transform="translate(4624.0 -0.0)"/><path d="M371 -41H505V380H556V506H505V862H371V138C343 112 294 101 245 101V198H113V101H12V-27H232C320 -27 350 9 360 67H371ZM181 218C272 218 334 273 334 369V490C334 586 272 641 181 641C90 641 28 586 28 490V369C28 273 90 218 181 218ZM181 339C158 339 157 358 157 398V461C157 501 158 520 181 520C203 520 204 501 204 461V398C204 358 203 339 181 339ZM16 660H346V785H216V792C248 795 270 814 270 844V875H119C119 836 125 785 82 785H16Z" transform="translate(5153.5 -0.0)"/><path d="M-14 76 92 15C121 68 145 123 165 180C171 139 167 69 165 22L278 26C280 166 287 278 248 295C221 307 212 294 198 270L193 272C237 432 253 594 253 728V849H24V733H133V708C133 462 71 211 -14 76ZM295 -26H410V862H295V547H253V434H295ZM423 -41H540V862H423Z" transform="translate(5683.0 -0.0)"/><path d="M384 -42H518V862H384V135C362 116 316 101 296 101H261V227H129V101H21V-28H247C335 -28 367 8 376 66H384ZM9 320 114 242C149 287 183 336 214 387C238 401 247 347 247 252L369 266C362 406 362 468 325 487C301 500 285 492 261 459L257 463C305 557 337 654 337 742V781H226V787C258 790 280 809 280 839V875H129C129 839 134 789 101 781H30V661H200C170 534 101 422 9 320Z" transform="translate(6387.0 -0.0)"/><path d="M280 400C416 400 504 470 504 592V678C504 800 416 870 280 870C144 870 56 800 56 678V592C56 470 144 400 280 400ZM212 -42H348V232H540V358H20V232H212ZM280 526C228 526 190 555 190 600V670C190 715 228 744 280 744C332 744 370 715 370 670V600C370 555 332 526 280 526Z" transform="translate(6916.5 -0.0)"/><path d="M26 486 123 390C191 442 244 498 282 559C315 578 372 496 425 399L543 483C489 567 439 631 393 646C362 656 342 644 326 625L318 631C341 688 353 749 353 816V862H213V816C213 674 141 569 26 486ZM212 -42H348V234H540V359H20V234H212Z" transform="translate(7446.0 -0.0)"/><path d="M-15 414 98 337C136 388 165 441 187 494C212 488 218 438 222 342L350 354C345 494 331 559 292 582C266 597 239 590 217 558L212 565C236 647 244 724 244 786V849H109V790C109 666 79 537 -15 414ZM202 -47H358C454 -47 520 30 520 131C520 232 454 310 358 310H202C106 310 41 232 41 131C41 30 106 -47 202 -47ZM337 76H223C199 76 178 100 178 131C178 162 199 186 223 186H337C361 186 383 162 383 131C383 100 361 76 337 76ZM365 335H499V522H561V649H499V862H365Z" transform="translate(7975.5 -0.0)"/><path d="M26 486 123 390C191 442 244 498 282 559C315 578 372 496 425 399L543 483C489 567 439 631 393 646C362 656 342 644 326 625L318 631C341 688 353 749 353 816V862H213V816C213 674 141 569 26 486ZM212 -42H348V234H540V359H20V234H212Z" transform="translate(8674.5 -0.0)"/><path d="M-15 414 98 337C136 388 165 441 187 494C212 488 218 438 222 342L350 354C345 494 331 559 292 582C266 597 239 590 217 558L212 565C236 647 244 724 244 786V849H109V790C109 666 79 537 -15 414ZM202 -47H358C454 -47 520 30 520 131C520 232 454 310 358 310H202C106 310 41 232 41 131C41 30 106 -47 202 -47ZM337 76H223C199 76 178 100 178 131C178 162 199 186 223 186H337C361 186 383 162 383 131C383 100 361 76 337 76ZM365 335H499V522H561V649H499V862H365Z" transform="translate(9204.0 -0.0)"/></g></svg>